<svg width="39" height="40" viewBox="0 0 39 40" fill="none" xmlns="http://www.w3.org/2000/svg">
<g clip-path="url(#clip0_202_931)">
<path d="M19.5 3.75C10.53 3.75 3.25 11.03 3.25 20C3.25 28.97 10.53 36.25 19.5 36.25C28.47 36.25 35.75 28.97 35.75 20C35.75 11.03 28.47 3.75 19.5 3.75ZM19.5 8.625C22.1975 8.625 24.375 10.8025 24.375 13.5C24.375 16.1975 22.1975 18.375 19.5 18.375C16.8025 18.375 14.625 16.1975 14.625 13.5C14.625 10.8025 16.8025 8.625 19.5 8.625ZM19.5 31.7C15.4375 31.7 11.8462 29.62 9.75 26.4675C9.79875 23.2337 16.25 21.4625 19.5 21.4625C22.7337 21.4625 29.2013 23.2337 29.25 26.4675C27.1537 29.62 23.5625 31.7 19.5 31.7Z" fill="#434343"/>
</g>
<defs>
<clipPath id="clip0_202_931">
<rect width="39" height="39" fill="white" transform="translate(0 0.5)"/>
</clipPath>
</defs>
</svg>
