<svg width="29" height="32" viewBox="0 0 29 32" fill="none" xmlns="http://www.w3.org/2000/svg">
<path d="M15.95 7.82279H13.05V14.081H7.25V17.2101H13.05V23.4684H15.95V17.2101H21.75V14.081H15.95V7.82279ZM14.5 0C6.496 0 0 7.00922 0 15.6456C0 24.2819 6.496 31.2911 14.5 31.2911C22.504 31.2911 29 24.2819 29 15.6456C29 7.00922 22.504 0 14.5 0ZM14.5 28.162C8.1055 28.162 2.9 22.5453 2.9 15.6456C2.9 8.74588 8.1055 3.12911 14.5 3.12911C20.8945 3.12911 26.1 8.74588 26.1 15.6456C26.1 22.5453 20.8945 28.162 14.5 28.162Z" fill="#FFBF91"/>
</svg>
