<svg width="35" height="35" viewBox="0 0 35 35" fill="none" xmlns="http://www.w3.org/2000/svg">
<g clip-path="url(#clip0_202_916)">
<path d="M24.0622 8.75001V25.5208C24.0622 28.7438 21.4518 31.3542 18.2288 31.3542C15.0059 31.3542 12.3955 28.7438 12.3955 25.5208V7.29168C12.3955 5.27918 14.0288 3.64584 16.0413 3.64584C18.0538 3.64584 19.6872 5.27918 19.6872 7.29168V22.6042C19.6872 23.4063 19.0309 24.0625 18.2288 24.0625C17.4268 24.0625 16.7705 23.4063 16.7705 22.6042V8.75001H14.583V22.6042C14.583 24.6167 16.2163 26.25 18.2288 26.25C20.2413 26.25 21.8747 24.6167 21.8747 22.6042V7.29168C21.8747 4.06876 19.2643 1.45834 16.0413 1.45834C12.8184 1.45834 10.208 4.06876 10.208 7.29168V25.5208C10.208 29.9542 13.7955 33.5417 18.2288 33.5417C22.6622 33.5417 26.2497 29.9542 26.2497 25.5208V8.75001H24.0622Z" fill="#FFBF91"/>
</g>
<defs>
<clipPath id="clip0_202_916">
<rect width="35" height="35" fill="white"/>
</clipPath>
</defs>
</svg>
