<svg width="159" height="30" viewBox="0 0 159 30" fill="none" xmlns="http://www.w3.org/2000/svg">
<path d="M0.524 6.484C1.484 6.508 2.396 6.532 3.044 6.532C4.796 6.532 14.54 6.532 16.268 6.532C16.868 6.532 17.756 6.532 18.644 6.508C18.596 7.228 18.596 8.092 18.596 8.836C18.596 10.3 18.596 19.132 18.596 20.596C18.596 21.532 18.62 23.836 18.644 23.932H15.308C15.308 23.836 15.38 21.964 15.38 20.644C15.38 19.252 15.38 9.604 15.38 9.604H3.764C3.764 9.604 3.764 19.228 3.764 20.644C3.764 21.796 3.788 23.812 3.788 23.932H0.5C0.5 23.812 0.548 21.7 0.548 20.548C0.548 19.108 0.548 10.228 0.548 8.836C0.548 8.14 0.548 7.18 0.524 6.484ZM16.556 19.564V22.612H2.132V19.564H16.556ZM39.404 3.46C40.028 4.348 40.868 5.812 41.3 6.7L39.284 7.54C38.828 6.508 38.06 5.188 37.436 4.276L39.404 3.46ZM42.668 2.692C43.268 3.58 44.132 5.02 44.588 5.884L42.572 6.724C42.068 5.74 41.324 4.396 40.652 3.508L42.668 2.692ZM24.668 7.228C25.58 7.324 26.828 7.396 27.644 7.396H39.74C40.436 7.396 41.444 7.348 41.852 7.324C41.828 7.9 41.78 8.836 41.78 9.556V21.988C41.78 22.804 41.828 24.076 41.876 24.82H38.396C38.42 24.1 38.444 23.236 38.444 22.348V10.492H27.668C26.636 10.492 25.364 10.54 24.668 10.588V7.228ZM24.38 20.26C25.196 20.332 26.3 20.404 27.38 20.404H40.34V23.572H27.476C26.54 23.572 25.172 23.62 24.38 23.716V20.26ZM47.75 16.5028C47.75 14.3892 48.0312 12.4432 48.5938 10.6648C49.1619 8.88636 50.0284 7.23864 51.1932 5.72159H54.6619C54.2188 6.28409 53.8068 6.97159 53.4261 7.78409C53.0455 8.59091 52.7131 9.47727 52.429 10.4432C52.1449 11.4091 51.9233 12.4091 51.7642 13.4432C51.6051 14.4716 51.5256 15.4915 51.5256 16.5028C51.5256 17.8494 51.6619 19.2102 51.9347 20.5852C52.2131 21.9545 52.5881 23.2273 53.0597 24.4034C53.5369 25.5795 54.071 26.5426 54.6619 27.2926H51.1932C50.0284 25.7756 49.1619 24.1278 48.5938 22.3494C48.0312 20.571 47.75 18.6222 47.75 16.5028ZM65.5923 12.268C68.5443 13.972 72.9843 17.044 75.2163 18.82L72.9123 21.556C70.8243 19.588 66.2643 16.228 63.4563 14.452L65.5923 12.268ZM76.8963 8.188C76.6083 8.644 76.2963 9.316 76.0803 9.916C75.3603 12.124 73.8963 15.196 71.7363 17.86C69.4803 20.668 66.4083 23.356 61.8243 25.084L59.0403 22.684C64.0563 21.124 66.9123 18.604 68.9763 16.204C70.5843 14.308 72.0723 11.548 72.5283 9.676H64.4163L65.5203 6.964H72.3603C73.1043 6.964 73.8963 6.844 74.4483 6.676L76.8963 8.188ZM68.9523 4.492C68.3763 5.332 67.7523 6.436 67.4643 6.94C65.8563 9.844 62.7843 13.516 59.3283 15.892L56.7603 13.9C60.9603 11.308 63.1683 8.02 64.3923 5.932C64.7523 5.356 65.2563 4.252 65.4723 3.412L68.9523 4.492ZM80.8083 14.188C85.1043 13.084 88.6083 11.524 91.2963 9.868C93.7443 8.356 96.4803 5.956 98.0403 4.06L100.632 6.508C98.4483 8.716 95.5203 10.972 92.6883 12.676C89.9763 14.284 86.0883 16.084 82.2963 17.212L80.8083 14.188ZM90.7923 11.428L94.2003 10.612V21.436C94.2003 22.492 94.2483 23.98 94.4163 24.58H90.6003C90.6963 24.004 90.7923 22.492 90.7923 21.436V11.428ZM110.832 21.22C110.832 19.372 110.832 9.436 110.832 7.42C110.832 6.556 110.76 5.38 110.592 4.516H114.336C114.24 5.38 114.12 6.412 114.12 7.42C114.12 10.06 114.144 19.444 114.144 21.22C114.144 21.892 114.24 23.572 114.36 24.556H110.592C110.76 23.62 110.832 22.156 110.832 21.22ZM113.424 10.732C116.616 11.62 121.8 13.516 124.152 14.668L122.808 18.004C120.072 16.588 116.04 15.052 113.424 14.188V10.732ZM139.368 22.972C139.488 22.516 139.56 21.868 139.56 21.22C139.56 19.948 139.56 9.172 139.56 7.228C139.56 6.148 139.392 5.212 139.392 5.164H142.944C142.944 5.212 142.776 6.172 142.776 7.252C142.776 9.172 142.776 18.316 142.776 19.78C144.744 18.94 147.096 17.044 148.728 14.716L150.552 17.38C148.56 19.972 145.128 22.564 142.416 23.932C141.912 24.196 141.624 24.46 141.384 24.628L139.368 22.972ZM128.256 22.636C130.392 21.148 131.688 18.94 132.336 16.876C133.032 14.836 133.056 10.276 133.056 7.396C133.056 6.412 132.96 5.788 132.816 5.188H136.344C136.344 5.284 136.176 6.364 136.176 7.348C136.176 10.204 136.104 15.268 135.48 17.692C134.736 20.38 133.248 22.756 131.184 24.58L128.256 22.636ZM158.888 16.5028C158.888 18.6222 158.604 20.571 158.036 22.3494C157.474 24.1278 156.61 25.7756 155.445 27.2926H151.977C152.42 26.7301 152.832 26.0426 153.212 25.2301C153.593 24.4176 153.925 23.5312 154.21 22.571C154.494 21.6051 154.715 20.6051 154.874 19.571C155.033 18.5369 155.113 17.5142 155.113 16.5028C155.113 15.1562 154.974 13.7983 154.695 12.429C154.423 11.054 154.048 9.78125 153.57 8.61079C153.099 7.43466 152.567 6.47159 151.977 5.72159H155.445C156.61 7.23864 157.474 8.88636 158.036 10.6648C158.604 12.4432 158.888 14.3892 158.888 16.5028Z" fill="#FFBF91"/>
</svg>
