<svg width="26" height="26" viewBox="0 0 26 26" fill="none" xmlns="http://www.w3.org/2000/svg">
<g clip-path="url(#clip0_202_942)">
<path d="M9.75033 22.75C9.75033 23.2917 10.1837 23.8333 10.8337 23.8333H15.167C15.817 23.8333 16.2503 23.2917 16.2503 22.75V21.6667H9.75033V22.75ZM13.0003 2.16666C8.77533 2.16666 5.41699 5.52499 5.41699 9.74999C5.41699 12.35 6.71699 14.625 8.66699 15.925V18.4167C8.66699 18.9583 9.10033 19.5 9.75033 19.5H16.2503C16.9003 19.5 17.3337 18.9583 17.3337 18.4167V15.925C19.2837 14.5167 20.5837 12.2417 20.5837 9.74999C20.5837 5.52499 17.2253 2.16666 13.0003 2.16666Z" fill="#434343"/>
</g>
<defs>
<clipPath id="clip0_202_942">
<rect width="26" height="26" fill="white"/>
</clipPath>
</defs>
</svg>
