<svg width="19" height="17" viewBox="0 0 19 17" fill="none" xmlns="http://www.w3.org/2000/svg">
<path fill-rule="evenodd" clip-rule="evenodd" d="M13.2958 9.70062C14.4582 10.6887 15.2727 12.0275 15.2727 13.8125V17H18.6667V13.8125C18.6667 11.4962 15.6376 10.1256 13.2958 9.70062Z" fill="#FFBF91"/>
<path d="M6.78786 8.49998C8.66228 8.49998 10.1818 6.59719 10.1818 4.24999C10.1818 1.90279 8.66228 0 6.78786 0C4.91344 0 3.39392 1.90279 3.39392 4.24999C3.39392 6.59719 4.91344 8.49998 6.78786 8.49998Z" fill="#FFBF91"/>
<path fill-rule="evenodd" clip-rule="evenodd" d="M11.8787 8.49998C13.7539 8.49998 15.2727 6.59811 15.2727 4.24999C15.2727 1.90187 13.7539 0 11.8787 0C11.4799 0 11.1066 0.10625 10.7502 0.254999C11.4545 1.34937 11.8787 2.74124 11.8787 4.24999C11.8787 5.75874 11.4545 7.15061 10.7502 8.24498C11.1066 8.39373 11.4799 8.49998 11.8787 8.49998Z" fill="#FFBF91"/>
<path fill-rule="evenodd" clip-rule="evenodd" d="M6.78788 9.5625C4.52242 9.5625 0 10.9862 0 13.8125V17H13.5758V13.8125C13.5758 10.9862 9.05333 9.5625 6.78788 9.5625Z" fill="#FFBF91"/>
</svg>
