<svg width="26" height="31" viewBox="0 0 26 31" fill="none" xmlns="http://www.w3.org/2000/svg">
<path id="Vector" d="M17.3333 0L8.66667 0V2.87464L17.3333 2.87464V0ZM11.5556 18.6851H14.4444L14.4444 10.0612H11.5556L11.5556 18.6851ZM23.1544 9.18446L25.2056 7.14347C24.5844 6.41044 23.9056 5.72052 23.1689 5.11685L21.1178 7.15784C18.8789 5.37557 16.0622 4.31195 13 4.31195C5.82111 4.31195 0 10.1043 0 17.2478C0 24.3913 5.80667 30.1837 13 30.1837C20.1933 30.1837 26 24.3913 26 17.2478C26 14.2007 24.9311 11.3979 23.1544 9.18446ZM13 27.309C7.41 27.309 2.88889 22.8102 2.88889 17.2478C2.88889 11.6854 7.41 7.18659 13 7.18659C18.59 7.18659 23.1111 11.6854 23.1111 17.2478C23.1111 22.8102 18.59 27.309 13 27.309Z" fill="#FFBF91"/>
</svg>
