<svg width="23" height="23" viewBox="0 0 23 23" fill="none" xmlns="http://www.w3.org/2000/svg">
<g clip-path="url(#clip0_334_570)">
<path d="M7.5841 4.84757L4.75567 7.676L5.69848 8.61881L8.52691 5.79038L7.5841 4.84757ZM11.8267 12.8614L12.7696 11.9186L9.94112 9.09021L8.99831 10.033L11.8267 12.8614ZM12.4961 5.96009L12.4961 4.6213C12.053 4.58358 11.6052 4.57887 11.1668 4.6213V5.96008C9.85156 6.10622 8.58348 6.67662 7.5841 7.676C5.24122 10.0189 5.24122 13.8184 7.5841 16.1613C9.92698 18.5042 13.7218 18.5089 16.0694 16.1613C18.417 13.8137 18.4123 10.0189 16.0694 7.676C15.07 6.67662 13.8019 6.10622 12.4961 5.96009ZM15.1266 15.2185C13.3022 17.0428 10.3512 17.0428 8.52691 15.2185C6.70257 13.3941 6.70257 10.4431 8.52691 8.61881C10.3512 6.79447 13.3022 6.79447 15.1266 8.61881C16.9509 10.4431 16.9509 13.3941 15.1266 15.2185Z" fill="white"/>
</g>
<defs>
<clipPath id="clip0_334_570">
<rect width="16" height="16" fill="white" transform="translate(0.041626 11.4472) rotate(-45)"/>
</clipPath>
</defs>
</svg>
